<svg id="visual" viewBox="0 0 900 600" width="900" height="600" xmlns="http://www.w3.org/2000/svg" xmlns:xlink="http://www.w3.org/1999/xlink" version="1.1"><path d="M0 175L25 163C50 151 100 127 150 117C200 107 250 111 300 109C350 107 400 99 450 90C500 81 550 71 600 78C650 85 700 109 750 115C800 121 850 109 875 103L900 97L900 0L875 0C850 0 800 0 750 0C700 0 650 0 600 0C550 0 500 0 450 0C400 0 350 0 300 0C250 0 200 0 150 0C100 0 50 0 25 0L0 0Z" fill="#050513"></path><path d="M0 235L25 216C50 197 100 159 150 145C200 131 250 141 300 140C350 139 400 127 450 120C500 113 550 111 600 119C650 127 700 145 750 148C800 151 850 139 875 133L900 127L900 95L875 101C850 107 800 119 750 113C700 107 650 83 600 76C550 69 500 79 450 88C400 97 350 105 300 107C250 109 200 105 150 115C100 125 50 149 25 161L0 173Z" fill="#050514"></path><path d="M0 277L25 266C50 255 100 233 150 232C200 231 250 251 300 245C350 239 400 207 450 192C500 177 550 179 600 188C650 197 700 213 750 218C800 223 850 217 875 214L900 211L900 125L875 131C850 137 800 149 750 146C700 143 650 125 600 117C550 109 500 111 450 118C400 125 350 137 300 138C250 139 200 129 150 143C100 157 50 195 25 214L0 233Z" fill="#060615"></path><path d="M0 313L25 298C50 283 100 253 150 249C200 245 250 267 300 265C350 263 400 237 450 223C500 209 550 207 600 213C650 219 700 233 750 236C800 239 850 231 875 227L900 223L900 209L875 212C850 215 800 221 750 216C700 211 650 195 600 186C550 177 500 175 450 190C400 205 350 237 300 243C250 249 200 229 150 230C100 231 50 253 25 264L0 275Z" fill="#060615"></path><path d="M0 325L25 314C50 303 100 281 150 280C200 279 250 299 300 296C350 293 400 267 450 251C500 235 550 229 600 236C650 243 700 263 750 266C800 269 850 255 875 248L900 241L900 221L875 225C850 229 800 237 750 234C700 231 650 217 600 211C550 205 500 207 450 221C400 235 350 261 300 263C250 265 200 243 150 247C100 251 50 281 25 296L0 311Z" fill="#060616"></path><path d="M0 397L25 390C50 383 100 369 150 373C200 377 250 399 300 404C350 409 400 397 450 387C500 377 550 369 600 366C650 363 700 365 750 367C800 369 850 371 875 372L900 373L900 239L875 246C850 253 800 267 750 264C700 261 650 241 600 234C550 227 500 233 450 249C400 265 350 291 300 294C250 297 200 277 150 278C100 279 50 301 25 312L0 323Z" fill="#070717"></path><path d="M0 427L25 421C50 415 100 403 150 405C200 407 250 423 300 429C350 435 400 431 450 425C500 419 550 411 600 408C650 405 700 407 750 408C800 409 850 409 875 409L900 409L900 371L875 370C850 369 800 367 750 365C700 363 650 361 600 364C550 367 500 375 450 385C400 395 350 407 300 402C250 397 200 375 150 371C100 367 50 381 25 388L0 395Z" fill="#0a0a1c"></path><path d="M0 493L25 486C50 479 100 465 150 467C200 469 250 487 300 489C350 491 400 477 450 468C500 459 550 455 600 455C650 455 700 459 750 462C800 465 850 467 875 468L900 469L900 407L875 407C850 407 800 407 750 406C700 405 650 403 600 406C550 409 500 417 450 423C400 429 350 433 300 427C250 421 200 405 150 403C100 401 50 413 25 419L0 425Z" fill="#0e1025"></path><path d="M0 505L25 502C50 499 100 493 150 499C200 505 250 523 300 526C350 529 400 517 450 510C500 503 550 501 600 500C650 499 700 499 750 500C800 501 850 503 875 504L900 505L900 467L875 466C850 465 800 463 750 460C700 457 650 453 600 453C550 453 500 457 450 466C400 475 350 489 300 487C250 485 200 467 150 465C100 463 50 477 25 484L0 491Z" fill="#0f142e"></path><path d="M0 541L25 539C50 537 100 533 150 535C200 537 250 545 300 545C350 545 400 537 450 533C500 529 550 529 600 530C650 531 700 533 750 532C800 531 850 527 875 525L900 523L900 503L875 502C850 501 800 499 750 498C700 497 650 497 600 498C550 499 500 501 450 508C400 515 350 527 300 524C250 521 200 503 150 497C100 491 50 497 25 500L0 503Z" fill="#111738"></path><path d="M0 565L25 564C50 563 100 561 150 562C200 563 250 567 300 564C350 561 400 551 450 548C500 545 550 549 600 550C650 551 700 549 750 546C800 543 850 539 875 537L900 535L900 521L875 523C850 525 800 529 750 530C700 531 650 529 600 528C550 527 500 527 450 531C400 535 350 543 300 543C250 543 200 535 150 533C100 531 50 535 25 537L0 539Z" fill="#121b43"></path><path d="M0 601L25 601C50 601 100 601 150 601C200 601 250 601 300 601C350 601 400 601 450 601C500 601 550 601 600 601C650 601 700 601 750 601C800 601 850 601 875 601L900 601L900 533L875 535C850 537 800 541 750 544C700 547 650 549 600 548C550 547 500 543 450 546C400 549 350 559 300 562C250 565 200 561 150 560C100 559 50 561 25 562L0 563Z" fill="#141e4d"></path></svg>